<svg fill="none" height="862" width="862" xmlns="http://www.w3.org/2000/svg"><path d="m0 0h862v862h-862z" fill="#fff"/><g fill="#000"><path d="m573 571-20 38c-4 7-6 15-8 22-1 3 0 4 2 6 12 11 26 20 42 26 8 3 14 8 14 18 0 3 1 4 4 4h130c7 0 10 2 10 8 1 6-3 10-9 10h-605c-8 0-12-6-10-13 1-3 3-5 6-5h170c3 0 4-1 5-5l3-30c1-5 2-9 6-12 2-1 2-3 2-5 1-25 0-49-2-74-1-17 2-33 9-49l1-1c2 0 4 2 5 3 12 9 25 14 40 14 7 0 14 2 21 0 5-1 6 0 5 5l-10 27c-11 23-22 47-28 72-1 4-1 6 1 10 3 10 9 18 18 23 7 4 9 11 10 18 0 3 2 4 5 4h93c3 0 5-1 5-5 1-11 1-23 4-34 1-3 2-5 5-6s4-4 4-6c4-21 9-41 10-62 0-11 1-22 4-33s9-19 18-26c2-2 5-2 7-1a85 85 0 0 0 53 14l1 1c-6 15-13 30-21 44zm-268-47-2 11c-4-2-6-5-7-8-8-14-9-30-5-46 4-23 17-40 40-48 11-3 13-11 14-20v-18l3-6c6-6 12-13 16-21l1-2c6 3 11 7 15 11 6 6 13 9 21 9 3 0 6 0 7-3s-2-4-4-5c-16-9-27-22-34-38-4-8-11-11-19-13 0 6 1 11 3 15 2 7 2 13-1 18a65 65 0 0 1 -47 34c-9 2-17-2-23-8-9-10-12-22-14-35-2-22 0-44 3-66v-8h9c1 0 4 0 4-3 0-2-2-3-3-4l-3-1c-7-1-7-1-6-9v-11c0-3 1-4 4-4l31-1c9 0 13 6 15 15 2 14-6 21-15 28-4 3-5 5-4 10 3 8 5 15 10 22 2 3 4 4 7 2l6-2 2-4c-1-15 7-27 22-33 14-5 28-3 41 3 2 1 3 2 6 1 2-5-3-8-6-13 5-4 10-7 16-9 5-2 8-6 7-12l1-20-2-6c-6-5-8-12-8-20s0-15 3-23a45 45 0 0 1 61-19c10 6 14 15 15 26l2 43c0 6-3 11-9 14-4 2-5 5-5 9 1 7 2 14 1 22-1 7-6 12-11 17-2 2-4 1-5 0l-15-11-11-4c-5 0-6 3-4 6l5 7 11 10c7 6 12 13 12 23 1 15 2 30-4 45l-5 10c-1 4 0 6 4 5 8-2 14-6 16-14 6-18 5-36 2-55-1-3 0-6 2-9 10-8 17-18 18-31 8 1 16 4 22 10 5 4 9 9 12 15 1 3 2 6 0 8-2 3-5 1-7 0-3 0-5-2-7-3-2 2 0 4 0 6l5 26c1 16-4 29-18 37-6 4-7 9-6 16 2 13-2 25-11 35l-18 18-8 11c-1 2-2 4 0 6s4 2 7 0l20-18c11-9 25-12 39-14l19-1c2 0 4-1 5 1 1 1 0 2-1 2-20 13-29 46-20 67 2 4 2 7-3 10-9 5-13 14-14 25 0 2-1 4-3 5-20 8-39 16-60 15-11 0-22-2-32-6-4-2-6-4-4-8 1-5 2-10 1-15l2-5c8-15 12-30 11-47-1-22-14-39-36-44-10-3-21-4-31-1-5 1-8 5-12 7a59 59 0 0 0 -27 48l1 12v5c-7 6-9 15-10 24zm298-229-2-13c4-2 8-2 12-2h26c10 0 16-6 17-16 1-8-4-15-13-16-12-3-24-1-36-2h-5c-2-1-1-3-1-5 5-15 9-31 19-43 7-10 16-16 29-15 11 1 18 7 25 16 10 12 15 27 18 43 3 21 2 41-4 61-5 14-12 26-25 35-12 8-25 7-36-2a81 81 0 0 1 -24-41zm-467 35a93 93 0 0 1 -20-46c-1-3 1-4 4-4 11-1 21-2 32 0 5 0 9-2 12-6 3-5 5-11 1-17-3-7-7-10-15-10h-35c0-8 2-14 4-21 3-11 8-21 16-30 15-18 34-18 49 1 8 10 13 22 16 34 7 30 5 59-8 86-4 8-9 15-15 20-12 9-24 9-35-1z"/><path d="m702 228c-5-19-12-36-30-48l1-1 13-1h19c7 0 13 3 19 8 12 13 19 28 22 45 5 23 5 46 1 69-3 14-9 27-19 38-6 7-13 11-24 11h-33c0-2 1-3 3-4 8-4 13-11 17-19 16-27 17-55 14-85zm-503-33c-4-6-9-10-14-15l1-1h32c9-1 14 4 20 10 10 12 14 26 18 41 6 27 5 54-3 81-4 13-11 25-22 35-4 2-8 4-13 4l-31-1h-5l1-2c18-11 26-29 30-48 7-26 7-53-2-79-3-9-6-17-12-25zm339 58c3-6 7-8 13-8l26 1c3 0 7 2 9 4 3 3 6 4 10 4l33 1 9-1c6-1 5 4 6 7 0 4 0 7-5 7h-35l-21 1c-2 0-3 0-4 2 0 2 0 4 2 5 5 1 5 5 5 9-1 10-3 19-6 28-8 21-17 42-30 61-8 13-20 19-35 23h-8v-7l4-5c12-11 18-25 17-42v-6c0-8 1-13 8-18 8-6 11-17 17-25 1-3 0-5-2-6l-10-10c-7-7-7-16-3-25zm-135 207c5 11 3 21 1 32l-2 15c0 2-1 4-3 4-18 2-35 3-52-4-21-10-20-10-18-31 3-21 22-37 42-36 14 1 26 6 32 20zm202 22c1 10-2 18-2 27 0 3-2 3-4 3-17 2-33-1-48-8l-7-4c-10-3-13-10-13-20 1-13 5-25 15-34 6-5 13-7 21-6 6 0 12 2 17 4 14 6 21 17 21 33zm-261-228h45c-4 4-6 9-9 13-1 3-5 2-7 2h-31c-6-1-7-1-7-7 0-7 1-8 7-8zm-191 14h-34c-4-1-7-1-7-6 0-7 0-7 7-7h31c3 0 6-1 6 3 1 3 2 7-3 10zm337-9c1-5 3-6 7-6l23 1c7 1 4 5 5 9 0 3-2 5-5 5l-24-2c-4 0-7-2-6-7z"/></g></svg>