<svg height="549" width="1800" xmlns="http://www.w3.org/2000/svg"><path d="m461 414-19 38c-4 7-7 14-9 22-1 2 0 4 2 6 13 11 26 20 43 26 8 2 14 8 14 18 0 3 1 4 3 4h130c7 0 11 2 11 8 0 5-4 10-9 10l-266-1-296 1h-43c-9 0-13-6-10-14 1-3 3-4 6-4h169c4 0 5-1 5-5 0-10 1-21 4-31 1-4 2-8 6-11l2-6c0-24-1-49-3-73-1-17 3-33 10-49l1-1 5 2c12 9 25 14 40 15h20c5-2 7 0 5 5-2 9-5 18-9 26-12 24-23 47-29 73l1 9c4 10 9 19 19 24 7 4 9 10 9 17 1 4 2 5 6 5h92c4 0 5-2 5-5 1-12 2-23 5-34 1-3 2-5 5-6 2-1 3-4 4-6 4-21 8-41 9-62 0-11 1-22 4-33s9-20 18-27c3-1 5-2 8 0a85 85 0 0 0 53 14h1c-6 16-13 30-22 45zm-268-48-1 11c-4-1-6-4-8-7-8-15-8-31-5-46 5-23 18-41 41-48 11-4 13-11 14-20v-18c0-2 0-5 2-6 7-6 12-13 17-21l1-3 14 12c7 5 14 8 22 9 3 0 5-1 6-3 1-3-1-4-3-5-16-9-27-23-35-38-4-8-10-12-19-13l4 15c2 6 1 12-2 18a65 65 0 0 1 -46 34c-9 2-17-2-23-9-9-9-13-21-14-34-3-22 0-44 2-66l1-8h8c2-1 4-1 4-3 1-2-1-3-3-4l-2-1c-7-1-7-1-7-9l1-12c0-2 1-3 3-3l31-1c9 0 14 6 16 15 2 14-6 21-15 27-5 3-5 6-4 11 2 7 5 15 9 21 2 3 4 4 7 3l6-2c2-1 3-2 2-4-1-15 8-28 23-33 14-6 28-3 41 3 2 0 3 2 5 1 3-6-2-9-5-13l15-9c6-3 8-6 8-12-1-7-1-14 1-21 0-2-1-4-3-5-5-6-8-12-7-20 0-8-1-16 2-23a45 45 0 0 1 62-20c10 6 13 16 14 27 1 14 3 28 2 42 0 7-2 12-8 15-4 2-5 5-5 9v22c-1 7-6 12-11 17-1 2-3 0-5-1l-15-10c-3-2-7-4-11-4s-6 2-4 6l5 7 12 10c7 6 12 13 12 23 1 15 1 30-5 45l-4 10c-2 4 0 5 4 5 8-2 13-6 16-14 6-18 5-37 1-55 0-4 0-6 3-9 9-8 16-18 17-31 9 1 16 4 23 9 5 4 9 10 12 16 1 3 1 6-1 8s-4 1-7 0l-7-3c-1 2 0 4 1 6l5 26c1 16-4 29-18 37-7 4-7 9-7 15 2 14-2 25-11 35l-17 19-8 11c-1 2-2 4 0 6s4 1 6 0c8-5 13-12 20-18 12-9 25-13 40-14l19-1c1 0 3-1 5 1l-1 2c-21 13-29 46-20 67 2 4 1 6-3 9-9 6-13 15-15 25 0 3-1 5-3 6-19 7-38 15-59 15-11 0-22-2-33-7-4-1-5-3-4-8 2-4 2-9 2-14l2-6c8-14 12-29 11-46-1-22-15-39-36-45-11-2-21-3-32 0-5 1-8 5-12 7a59 59 0 0 0 -27 48l2 12c0 2 1 4-1 5-7 6-8 14-10 23zm299-228-2-14 11-1h27c9 0 15-6 17-16 1-8-4-15-13-17-12-2-24-1-37-1h-4c-2-2-2-4-1-5 4-16 8-31 18-44 8-9 17-15 29-14 11 1 19 7 25 15 11 13 16 28 18 44 3 20 3 41-4 60-5 15-12 27-25 36-12 8-24 7-35-2a81 81 0 0 1 -24-41zm-468 35a93 93 0 0 1 -19-46c-1-3 0-5 4-5h32c5 1 9-1 11-5 3-6 5-11 2-18-3-6-8-10-15-10h-35a87 87 0 0 1 20-51c14-17 34-17 48 1 9 11 13 23 17 35 7 30 4 58-9 86-3 8-8 15-15 20-11 9-23 8-34-1z"/><path d="m591 71c-6-19-13-36-30-48l1-1 13-1h18c8 0 14 3 19 8 13 12 20 28 23 45 5 23 5 46 0 68-3 14-9 28-18 39-7 7-14 11-24 11h-28c-2 0-4 1-5-1s1-2 2-3c8-5 13-12 18-19 16-27 17-56 13-85zm-503-34c-4-6-10-9-15-14l2-1 31-1c9 0 15 5 20 11 11 11 15 26 18 41 6 27 5 54-3 81-4 13-11 25-22 34-3 3-7 5-12 4h-31c-2 0-4 1-5-1v-2c19-10 26-28 31-47 7-26 7-53-2-79-3-9-6-18-12-26zm338 58c3-5 8-7 13-7 9-1 18 0 26 1 4 0 7 2 10 4 2 3 6 4 9 4h43c5-1 5 4 5 7 1 3 0 6-5 6h-34l-21 1c-2 0-4 0-4 3 0 2-1 4 2 4 5 2 5 6 4 10-1 9-2 19-6 27-7 22-16 43-29 62-9 13-21 19-35 22l-3 1c-2 0-5 1-6-1v-6l4-5c13-11 18-26 18-42v-7c-1-7 0-12 7-17 9-6 12-17 17-26 2-2 0-4-2-6l-9-9c-7-8-8-16-4-26zm-134 208c4 10 3 21 1 32l-3 15c0 2 0 4-3 4-17 2-35 3-51-5-21-10-21-9-18-31 2-20 21-37 42-35 13 1 25 6 32 20zm201 22c1 9-1 18-2 27 0 3-2 3-4 3-16 1-32-1-47-9l-7-3c-10-3-13-11-13-20 0-13 4-25 15-34 6-6 13-8 21-7 5 1 11 2 16 5 14 6 22 17 21 33zm-261-228h46c-4 4-6 9-9 13-2 2-5 2-8 2l-31-1c-6 0-7 0-7-6 0-7 1-8 7-8zm-190 13h-34c-4 0-7 0-7-5-1-7 0-7 6-7h32c2 0 5-1 6 2 0 4 2 8-3 10zm337-9c0-4 2-6 7-5 7 0 15-1 23 1 6 0 4 5 4 8 1 4-1 5-5 5l-23-1c-5 0-7-2-6-8zm388 161c-18 0-32-5-41-15-10-10-14-24-14-43v-128c0-19 4-33 14-43 9-10 23-15 41-15s31 5 40 15c10 10 15 24 15 43v25h-36v-27c0-15-6-22-18-22-13 0-19 7-19 22v133c0 14 6 21 19 21 12 0 18-7 18-21v-37h36v34c0 19-5 33-15 43-9 10-22 15-40 15zm122 0c-19 0-33-5-43-15a62 62 0 0 1 -14-44v-126c0-19 5-33 14-44 10-10 24-15 43-15 18 0 32 5 42 15 10 11 14 25 14 44v126c0 19-4 33-14 44-10 10-24 15-42 15zm0-34c13 0 19-7 19-23v-130c0-16-6-23-19-23s-20 7-20 23v130c0 16 7 23 20 23zm71-207h47l37 142v-142h34v238h-39l-45-174v174h-34zm144 239-17-1v-34l12 1c8 0 13-1 17-5 3-4 5-10 5-17v-183h38v182c0 19-5 34-14 43-9 10-22 14-41 14zm126 2c-19 0-32-5-42-15-9-10-14-25-14-44v-182h37v184c0 8 2 14 5 18s8 5 14 5 11-1 14-5c4-4 5-10 5-18v-184h36v182c0 19-4 34-14 44-9 10-23 15-41 15zm125 0c-18 0-32-5-42-15-9-10-14-25-14-44v-126c0-19 5-34 14-44 10-10 24-15 42-15s32 5 41 15c10 10 15 25 15 44v21h-36v-23c0-16-6-23-19-23s-20 7-20 23v130c0 16 7 23 20 23s19-7 19-23v-46h-18v-34h54v78c0 19-5 34-15 44-9 10-23 15-41 15zm98-241h51l39 238h-38l-6-47h-43l-7 47h-34zm41 159-17-118-17 118zm70-125h-39v-34h116v34h-39v204h-38zm85-34h102v34h-65v63h51v34h-51v73h65v34h-102zm115 202h36v36h-36zm-1021 118h-39v-34h116v34h-39v204h-38zm85-34h55c19 0 33 5 42 14 9 8 13 22 13 41v14c0 25-8 41-24 47v1c9 3 15 8 19 17 4 8 6 19 6 33v59l4 12h-38l-3-11-1-18v-44c0-11-1-18-5-23-3-4-9-6-18-6h-13v102h-37zm51 102c7 0 13-2 16-6 4-4 6-10 6-19v-19c0-8-2-14-5-18s-7-6-14-6h-17v68zm104-102h51l39 238h-38l-6-47h-43l-7 47h-34zm41 159-16-118h-1l-16 118zm57-159h37v238h-37zm55 0h47l36 142h1v-142h33v238h-38l-45-174h-1v174h-33zm135 0h37v238h-37zm55 0h47l36 142h1v-142h33v238h-38l-45-174h-1v174h-33zm188 241c-18 0-32-5-41-15-10-10-15-25-15-44v-126c0-19 5-34 15-44 9-10 23-15 41-15s32 5 42 15c9 10 14 25 14 44v21h-36v-23c0-16-6-23-19-23s-19 7-19 23v130c0 16 6 23 19 23s19-7 19-23v-46h-18v-34h54v78c0 19-5 34-14 44-10 10-24 15-42 15z"/></svg>